PathFileType	4	(X/Y/Z)	C:/Users/beibeiliu/ov580/test_trc/capture2\sequence.11_training_dense_left.trc
DataRate	CameraRate	NumFrames	NumMarkers	Units	OrigDataRate	OrigDataStartFrame	OrigNumFrames
120	120	13	19	mm	120	44	350
Frame#	Time	ThumbCMC			ThumbMCP			ThumbIP			ThumbTip			IndexMCP			IndexPIP			IndexTip			MiddleMCP			MiddlePIP			MiddleTip			RingMCP			RingPIP			RingTip			PinkyMCP			PinkyPIP			PinkyTip			BackHand1			BackHand2			BackHand3	
		X0	Y0	Z0	X1	Y1	Z1	X2	Y2	Z2	X3	Y3	Z3	X4	Y4	Z4	X5	Y5	Z5	X6	Y6	Z6	X7	Y7	Z7	X8	Y8	Z8	X9	Y9	Z9	X10	Y10	Z10	X11	Y11	Z11	X12	Y12	Z12	X13	Y13	Z13	X14	Y14	Z14	X15	Y15	Z15	X16	Y16	Z16	X17	Y17	Z17	X18	Y18	Z18	
43	0.358333	-179.956	54.9368	-68.3531	-167.026	61.5729	-90.2498	-162.877	66.9914	-114.365	-156.881	68.6546	-140.687	-174.457	-0.722838	-121.835	-169.092	-5.02934	-145.17	-156.086	-18.0313	-164.286	-166.183	-22.7521	-109.611	-156.251	-36.5549	-136.621	-138.63	-47.9229	-155	-152.129	-33.9355	-99.0912	-140.01	-46.1475	-114.212	-120.943	-57.5727	-134.575	-136.41	-37.8973	-78.36	-120.557	-47.8349	-86.7665	-108.355	-62.3774	-97.4515	-175.805	-9.80191	-57.2502	-180.893	2.67946	-28.2278	-192.391	21.6924	-59.3333	
44	0.366667	-178.399	51.8154	-64.6236	-167.623	64.6801	-90.9987	-163.988	67.8711	-120.268	-157.501	66.2005	-139.135	-174.994	1.78833	-120.861	-168.119	-7.41606	-143.249	-153.822	-20.1728	-165.502	-166.261	-20.4254	-110.07	-154.74	-36.2552	-130.885	-137.899	-47.7231	-155.811	-149.028	-35.1237	-98.2523	-137.825	-46.0289	-113.564	-118.518	-56.8351	-134.631	-135.14	-34.702	-74.5801	-115.605	-48.3932	-87.1405	-103.547	-63.3384	-101.337	-172.292	-9.28878	-54.287	-179.785	5.65662	-31.1832	-191.904	18.8084	-61.9381	
45	0.375	-178.106	52.6507	-67.3771	-166.667	62.9825	-92.8828	-162.266	66.6441	-114.929	-159.271	69.6981	-135.56	-175.249	1.34224	-121.686	-167.134	-6.7599	-146.258	-155.137	-18.3823	-166.113	-164.659	-22.7133	-112.655	-150.763	-38.9498	-133.507	-137.765	-48.1826	-154.68	-151.334	-31.2917	-98.7397	-137.289	-44.2872	-114.4	-117.055	-55.799	-137.533	-130.835	-37.4206	-76.8742	-114.534	-46.9161	-85.1253	-103.77	-61.8317	-97.0417	-169.179	-11.6283	-51.5805	-179.546	5.45658	-28.569	-189.749	18.8498	-58.527	
46	0.383333	-180.062	51.6719	-69.6598	-168.822	64.6123	-91.3326	-164.788	66.6093	-115.308	-158.966	65.8175	-139.401	-176.564	1.55091	-120.727	-168.997	-7.89954	-142.779	-154.847	-20.8336	-163.775	-166.815	-22.2372	-113.471	-153.874	-37.7247	-136.381	-138.177	-48.2498	-154.772	-149.188	-34.5924	-94.4544	-138.219	-45.0995	-116.297	-118.812	-56.1231	-134.111	-130.845	-38.4203	-77.4215	-119.009	-44.9334	-86.2948	-103.201	-60.0049	-97.6363	-171.385	-10.8545	-55.5793	-177.243	3.87977	-27.8058	-190.014	18.587	-59.4072	
47	0.391667	-179.805	53.3654	-67.9383	-166.667	60.0186	-90.2196	-167.093	68.7828	-118.392	-163.159	71.4882	-137.785	-177.021	0.266679	-123.484	-170.469	-5.24508	-143.595	-159.326	-17.6896	-166.594	-167.147	-21.6	-110.094	-154.683	-38.4003	-132.533	-140.046	-47.8602	-156.732	-149.365	-35.6449	-98.8033	-138.539	-44.8398	-116.687	-119.952	-56.4337	-136.534	-134.088	-35.5703	-77.5241	-116.658	-46.6327	-88.1612	-102.354	-62.1569	-101.328	-170.181	-9.62496	-52.6355	-179.523	2.53137	-31.6994	-191.595	17.7074	-59.1893	
48	0.4	-180.049	52.5382	-63.8692	-166.862	60.2645	-88.0615	-168.008	69.7958	-116.215	-162.068	67.5782	-138.144	-179.019	1.16298	-121.541	-171.189	-8.33307	-144.146	-160.858	-19.1088	-165.379	-167.646	-22.8768	-109.778	-158.186	-36.0785	-136.325	-141.965	-46.8358	-159.99	-153.378	-31.2178	-98.2466	-137.573	-48.707	-116.68	-122.295	-54.0425	-141.656	-132.951	-39.6603	-78.0917	-118.025	-49.4479	-91.5843	-106.585	-62.4122	-100.912	-172.047	-12.4374	-52.0161	-178.028	0.288406	-31.5238	-190.299	14.8349	-55.6362	
49	0.408333	-182.105	51.5716	-67.81	-169.511	58.009	-87.2541	-168.567	65.5079	-113.544	-165.593	68.6511	-137.179	-180.776	-1.62867	-122.868	-173.385	-8.8146	-146.956	-164.06	-18.3943	-166.285	-171.731	-24.9967	-111.859	-160.165	-38.7486	-133.929	-141.69	-52.3185	-157.624	-155.404	-36.7129	-98.231	-141.618	-48.9247	-119.243	-124.967	-58.6309	-137.748	-140.905	-36.9487	-77.3731	-123.888	-48.7231	-91.4071	-107.247	-67.6782	-101.07	-175.96	-15.7331	-55.2524	-181.182	1.13283	-30.997	-192.898	14.1036	-57.6836	
50	0.416667	-180.803	52.8036	-62.5137	-169.368	60.1078	-88.4947	-167.08	66.5015	-112.273	-165.454	72.0813	-135.713	-180.776	3.25038	-119.43	-172.686	-11.1183	-144.726	-165.497	-17.7798	-165.161	-169.857	-23.8979	-111.156	-159.5	-38.6997	-134.207	-143.737	-50.3793	-154.707	-155.624	-34.0138	-97.5751	-139.279	-49.9963	-118	-123.359	-58.3589	-140.017	-136.279	-40.0271	-78.932	-121.445	-50.4246	-87.4628	-110.036	-64.8596	-101.305	-174.893	-13.7579	-53.2957	-180.293	-2.43025	-29.7133	-192.15	13.6809	-57.4787	
51	0.425	-180.575	52.3936	-62.2639	-170.52	63.4386	-87.111	-166.245	65.4097	-112.203	-164.059	69.437	-138.649	-179.867	-1.03456	-120.012	-173.044	-10.0975	-144.251	-163.239	-22.0274	-166.536	-169.732	-24.1974	-110.68	-162.143	-36.4302	-132.774	-141.643	-53.1483	-157.883	-155.406	-34.1344	-99.414	-141.31	-48.2849	-119.276	-124.357	-59.21	-135.417	-135.867	-40.3048	-74.6123	-119.669	-51.9252	-90.5949	-107.776	-64.4426	-103.962	-173.732	-13.9448	-55.0575	-177.371	-3.04507	-27.5725	-192.976	13.9629	-58.5453	
52	0.433333	-179.627	45.8283	-62.7774	-169.553	57.9769	-84.1845	-167.783	63.9575	-117.494	-162.842	66.1416	-137.138	-179.291	-4.30236	-117.052	-172.961	-13.0909	-141.435	-162.296	-24.3495	-164.327	-169.622	-30.1269	-111.451	-162.663	-39.3715	-132.322	-145.832	-50.4311	-157.718	-153.477	-37.9066	-94.0107	-142.395	-49.9951	-117.116	-125.421	-61.8056	-136.565	-135.679	-42.5438	-74.9963	-120.015	-54.0258	-90.1603	-106.581	-72.2649	-101.358	-172.848	-15.8252	-55.181	-179.144	-4.90497	-24.1772	-192.547	11.3987	-59.291	
53	0.441667	-181.025	47.0423	-60.7898	-170.764	55.5356	-88.9645	-167.753	61.8622	-115.706	-162.531	62.4312	-134.243	-181.599	-5.47367	-116.032	-174.975	-14.3492	-142.149	-167.168	-23.5187	-161.753	-174.06	-29.0539	-112.592	-163.678	-44.2526	-133.844	-147.354	-55.8163	-155.097	-159.049	-38.8307	-98.1746	-145.211	-53.189	-114.167	-132.2	-62.4698	-134.686	-141.712	-44.8315	-75.9536	-125.805	-56.5601	-89.8707	-113.146	-73.2946	-100.045	-176.998	-19.5815	-48.884	-182.233	-6.23329	-26.1267	-194.769	10.699	-59.1664	
54	0.45	-180.961	42.681	-64.586	-169.37	51.6831	-85.3325	-167.042	58.6346	-113.318	-161.867	59.4081	-133.193	-182.676	-8.41252	-116.566	-176.413	-18.3812	-144.298	-168.944	-27.3153	-161.596	-174.537	-34.2441	-107.465	-165.047	-46.9463	-133.552	-150.034	-58.9728	-155.99	-159.54	-44.17	-93.3128	-145.86	-59.914	-114.278	-133.078	-66.1463	-134.7	-142.39	-50.4275	-76.035	-127.869	-61.0527	-87.6149	-113.815	-75.5799	-100.571	-179.064	-22.8099	-50.7784	-181.536	-8.23793	-23.9696	-193.884	9.88473	-57.3463	
55	0.458333	-179.33	39.413	-62.1392	-168.862	50.2791	-88.0233	-164.598	53.4286	-111.776	-162.291	60.3651	-135.424	-182.995	-10.8459	-113.92	-176.239	-20.7696	-140.596	-168.893	-31.9247	-161.594	-176.814	-34.3746	-108.397	-168.03	-48.9709	-133.104	-152.128	-62.4059	-150.689	-163.447	-43.6163	-93.4817	-147.674	-62.7576	-115.759	-133.964	-69.8928	-133.926	-144.298	-53.2924	-73.1824	-131.292	-62.2263	-86.1935	-111.922	-81.0428	-98.9847	-180.224	-21.3727	-51.5526	-185.071	-8.46128	-27.7147	-196.435	7.66276	-54.0536	
